<svg xmlns="http://www.w3.org/2000/svg" viewBox="0 0 24 24">
  <rect width="24" height="24" rx="5" fill="#14121d"/>
  <path d="M11.33 13.27 L11.20 13.17 L11.09 13.06 L11.00 12.92 L10.93 12.76 L10.88 12.58 L10.86 12.40 L10.87 12.21 L10.91 12.01 L10.99 11.82 L11.10 11.64 L11.23 11.47 L11.41 11.32 L11.60 11.20 L11.83 11.11 L12.07 11.05 L12.32 11.03 L12.59 11.05 L12.86 11.12 L13.12 11.23 L13.37 11.38 L13.60 11.58 L13.80 11.83 L13.96 12.11 L14.08 12.42 L14.15 12.76 L14.17 13.11 L14.13 13.48 L14.03 13.85 L13.86 14.21 L13.63 14.55 L13.35 14.86 L13.00 15.12 L12.61 15.34 L12.17 15.49 L11.69 15.58 L11.20 15.59 L10.69 15.52 L10.18 15.36 L9.69 15.12 L9.23 14.79 L8.82 14.38 L8.46 13.89 L8.18 13.33 L7.98 12.71 L7.88 12.06 L7.89 11.37 L8.01 10.66 L8.24 9.97 L8.60 9.30 L9.08 8.67 L9.67 8.11 L10.36 7.63 L11.14 7.26 L12.00 7.02 L12.92 6.90 L13.88 6.94 L14.85 7.14 L15.81 7.50 L16.72 8.02 L17.57 8.70 L18.33 9.54 L18.96 10.52 L19.44 11.63 L19.75 12.83 L19.87 14.11 L19.78 15.44" fill="none" stroke="#e4ab6b" stroke-width="1.5" stroke-linecap="round"/>
</svg>
